<?xml version="1.0" encoding="UTF-8" standalone="no"?>
<!-- Generator: Gravit.io -->
<svg xmlns="http://www.w3.org/2000/svg" xmlns:xlink="http://www.w3.org/1999/xlink" style="isolation:isolate" viewBox="0 0 300 300" width="300pt" height="300pt"><defs><clipPath id="_clipPath_6O5673D6PvlBugD8tQARjoaAkell2eD6"><rect width="300" height="300"/></clipPath></defs><g clip-path="url(#_clipPath_6O5673D6PvlBugD8tQARjoaAkell2eD6)"><path d=" M 294.874 171.986 L 294.874 127.423 L 252.321 120.475 C 250.114 112.812 247.052 105.422 243.194 98.442 L 267.985 63.105 L 236.472 31.603 L 201.581 56.684 C 194.557 52.775 187.111 49.678 179.386 47.453 L 171.969 5.115 L 127.405 5.115 L 120.527 47.314 C 112.791 49.5 105.331 52.564 98.292 56.446 L 63.493 31.586 L 31.992 63.076 L 56.464 98.066 C 52.523 105.146 49.403 112.653 47.163 120.44 L 5.126 127.44 L 5.126 171.98 L 47.093 179.415 C 49.324 187.204 52.445 194.709 56.394 201.784 L 31.592 236.472 L 63.076 267.997 L 98.118 243.455 C 105.171 247.359 112.647 250.446 120.399 252.658 L 127.429 294.885 L 171.963 294.885 L 179.479 252.542 C 187.199 250.295 194.64 247.179 201.656 243.252 L 236.918 267.997 L 268.431 236.466 L 243.241 201.494 C 247.099 194.512 250.153 187.114 252.345 179.444 L 294.874 171.986 Z  M 150 190.565 C 127.632 190.565 109.435 172.363 109.435 150 C 109.435 127.632 127.632 109.435 150 109.435 C 172.363 109.435 190.565 127.632 190.565 150 C 190.565 172.363 172.363 190.565 150 190.565 Z " fill="rgb(255,255,255)"/></g></svg>